<svg width="76" height="50" viewBox="0 0 76 50" fill="none" xmlns="http://www.w3.org/2000/svg">
<rect x="11.0119" y="9.82141" width="62.7638" height="38.6905" rx="4.46429" fill="#3B5A48" stroke="white" stroke-width="2.97619"/>
<line x1="11.9048" y1="25" x2="73.8095" y2="25" stroke="white" stroke-width="5.95238"/>
<rect x="1.4881" y="1.4881" width="62.7638" height="38.6905" rx="4.46429" fill="#3B5A48" stroke="white" stroke-width="2.97619"/>
<mask id="path-4-inside-1_35_9" fill="white">
<rect x="9.93744" y="7.7381" width="10.1188" height="7.14286" rx="0.595238"/>
</mask>
<rect x="9.93744" y="7.7381" width="10.1188" height="7.14286" rx="0.595238" stroke="white" stroke-width="2.38095" mask="url(#path-4-inside-1_35_9)"/>
<line x1="11.7096" y1="10.5636" x2="13.7581" y2="10.5636" stroke="white" stroke-width="0.238095"/>
<line x1="11.7096" y1="12.138" x2="13.7581" y2="12.138" stroke="white" stroke-width="0.238095"/>
<line x1="15.8067" y1="10.5636" x2="17.8552" y2="10.5636" stroke="white" stroke-width="0.238095"/>
<line x1="15.8067" y1="12.138" x2="17.8552" y2="12.138" stroke="white" stroke-width="0.238095"/>
<line y1="-0.119048" x2="1.13626" y2="-0.119048" transform="matrix(0.721153 0.692776 -0.721153 0.692776 14.1679 12.257)" stroke="white" stroke-width="0.238095"/>
<line y1="-0.119048" x2="1.13626" y2="-0.119048" transform="matrix(0.721153 -0.692776 0.721153 0.692776 14.9874 13.0443)" stroke="white" stroke-width="0.238095"/>
<line x1="15.6877" y1="12.257" x2="15.6877" y2="10.6827" stroke="white" stroke-width="0.238095"/>
<line x1="14.0489" y1="12.257" x2="14.0489" y2="10.6827" stroke="white" stroke-width="0.238095"/>
<line y1="-0.119048" x2="1.19125" y2="-0.119048" transform="matrix(0.476768 -0.879029 0.894235 0.447597 14.1679 10.5045)" stroke="white" stroke-width="0.238095"/>
<line y1="-0.119048" x2="0.75288" y2="-0.119048" transform="matrix(0.929293 0.369344 -0.395549 0.918445 14.9874 9.89554)" stroke="white" stroke-width="0.238095"/>
<mask id="path-15-inside-2_35_9" fill="white">
<rect x="48.2143" y="27.381" width="11.3095" height="7.73809" rx="0.595238"/>
</mask>
<rect x="48.2143" y="27.381" width="11.3095" height="7.73809" rx="0.595238" stroke="white" stroke-width="3.57143" mask="url(#path-15-inside-2_35_9)"/>
<line x1="9.93744" y1="23.9749" x2="31.3412" y2="23.9749" stroke="white" stroke-width="2.97619"/>
<line x1="9.93744" y1="30.1477" x2="17.5816" y2="30.1477" stroke="white" stroke-width="2.97619"/>
<line x1="19.1104" y1="30.1477" x2="26.7546" y2="30.1477" stroke="white" stroke-width="2.97619"/>
<line x1="28.2834" y1="30.1477" x2="35.9276" y2="30.1477" stroke="white" stroke-width="2.97619"/>
<line x1="37.4565" y1="30.1477" x2="45.1007" y2="30.1477" stroke="white" stroke-width="2.97619"/>
<line x1="30.3572" y1="12.2024" x2="57.1429" y2="12.2024" stroke="white" stroke-width="7.73809"/>
</svg>
